<?xml version="1.0" encoding="utf-8"?>
<!-- Generator: Adobe Illustrator 22.1.0, SVG Export Plug-In . SVG Version: 6.00 Build 0)  -->
<svg version="1.1" id="Layer_1" xmlns="http://www.w3.org/2000/svg" xmlns:xlink="http://www.w3.org/1999/xlink" x="0px" y="0px"
	 viewBox="0 0 111 19" style="enable-background:new 0 0 111 19;" xml:space="preserve">
<style type="text/css">
	.st0{fill:none;}
</style>
<g id="iPhone_X_S_1_">
	<path d="M0,2.4c0-0.8,0.7-1.5,1.5-1.5C2.3,0.9,3,1.5,3,2.4c0,0.8-0.7,1.5-1.5,1.5C0.7,3.8,0,3.2,0,2.4z M0.2,5.6h2.5V18H0.2V5.6z
		 M12.1,1c3.3,0,5.6,2.3,5.6,5.6c0,3.3-2.3,5.6-5.7,5.6H8.3V18H5.7V1H12.1z M8.3,10h3c2.3,0,3.6-1.2,3.6-3.4s-1.3-3.4-3.6-3.4h-3V10
		z M19.4,1H22v6.7H22c0.7-1.5,2-2.3,3.9-2.3c2.7,0,4.3,1.8,4.3,4.6V18h-2.5v-7.4c0-1.8-0.9-2.9-2.7-2.9c-1.9,0-3,1.3-3,3.3V18h-2.5
		L19.4,1L19.4,1z M32.1,11.8c0-3.9,2.3-6.3,5.9-6.3c3.6,0,5.9,2.4,5.9,6.3c0,3.9-2.3,6.3-5.9,6.3S32.1,15.7,32.1,11.8z M41.2,11.8
		c0-2.7-1.2-4.2-3.3-4.2c-2.1,0-3.3,1.6-3.3,4.2c0,2.7,1.2,4.2,3.3,4.2C40,16.1,41.2,14.5,41.2,11.8z M45.6,5.6h2.4v2.1h0.1
		c0.7-1.5,2-2.3,3.9-2.3c2.7,0,4.3,1.8,4.3,4.6V18h-2.5v-7.4c0-1.9-0.9-2.9-2.7-2.9c-1.8,0-2.9,1.3-2.9,3.2V18h-2.5
		C45.6,18,45.6,5.6,45.6,5.6z M69.3,14.4c-0.3,2.3-2.5,3.8-5.3,3.8c-3.6,0-5.8-2.4-5.8-6.3c0-3.9,2.3-6.4,5.7-6.4
		c3.4,0,5.6,2.3,5.6,6.1v0.9h-8.7v0.1c0,2.1,1.3,3.5,3.3,3.5c1.4,0,2.5-0.7,2.9-1.7C66.9,14.4,69.3,14.4,69.3,14.4z M60.7,10.7h6.2
		c-0.1-1.9-1.3-3.1-3-3.1C62.1,7.5,60.8,8.8,60.7,10.7z M79.6,9.5L79.6,9.5L74,1h3.1l4.2,6.6h0.1L85.6,1h3l-5.8,8.5v0.1l5.6,8.4
		h-3.1l-4.2-6.5h-0.1L76.8,18h-2.9C73.9,18,79.6,9.5,79.6,9.5z M110.2,5c-0.1-2.5-1.7-4.1-4.3-4.3L105,0.7h-7l-0.9,0.1
		C94.6,0.9,93,2.4,92.8,5l-0.1,1v7l0.1,1c0.2,2.6,1.8,4.2,4.3,4.3l0.9,0h7l0.9,0c2.5-0.1,4.1-1.7,4.3-4.3l0.1-1V6L110.2,5z
		 M108.6,13.8c0,1.7-1.2,2.7-2.8,2.8l-0.9,0h-7l-0.9,0c-1.6,0-2.8-1.1-2.8-2.8l-0.1-0.9v-7l0.1-0.9c0-1.7,1.1-2.7,2.8-2.8l0.9,0h7
		l0.9,0c1.6,0,2.8,1.1,2.8,2.8l0.1,0.9v7L108.6,13.8z"/>
	<path d="M99.5,11.4c0.1,0.8,0.9,1.3,2,1.3c1.1,0,1.8-0.5,1.8-1.3c0-0.6-0.4-1-1.6-1.3l-1-0.2c-1.8-0.4-2.6-1.2-2.6-2.5
		c0-1.6,1.4-2.6,3.3-2.6c2,0,3.3,1.1,3.3,2.7h-1.5c-0.1-0.8-0.8-1.3-1.8-1.3c-1,0-1.7,0.5-1.7,1.2c0,0.6,0.4,1,1.6,1.2l1,0.2
		c1.9,0.4,2.7,1.1,2.7,2.5c0,1.7-1.3,2.8-3.5,2.8c-2.1,0-3.4-1-3.5-2.7H99.5L99.5,11.4z"/>
	<path id="BOUNDS_1_" class="st0" d="M0,0h111v19H0V0z"/>
</g>
</svg>
